<?xml version="1.0" encoding="UTF-8"?> <!-- Generator: Adobe Illustrator 25.2.3, SVG Export Plug-In . SVG Version: 6.00 Build 0) --> <svg xmlns="http://www.w3.org/2000/svg" xmlns:xlink="http://www.w3.org/1999/xlink" version="1.1" id="Capa_1" x="0px" y="0px" viewBox="0 0 316.1 64.3" style="enable-background:new 0 0 316.1 64.3;" xml:space="preserve"> <style type="text/css"> .st0{fill:#1381C2;} .st1{fill:#91BE2B;} .st2{fill:#898A8D;} .st3{fill-rule:evenodd;clip-rule:evenodd;fill:#FCFCFB;} .st4{fill:#007934;} .st5{fill:#FFFFFF;} .st6{fill:#80BC00;} </style> <g> <path class="st0" d="M240,47.1c0,1.3-1,2.4-2.4,2.4c-1.3,0-2.4-1-2.4-2.4c0-1.3,1.1-2.3,2.4-2.3C239,44.8,240,45.8,240,47.1 M235.8,47.1c0,1,0.8,1.9,1.8,1.9s1.8-0.8,1.8-1.8s-0.8-1.9-1.8-1.9S235.8,46.1,235.8,47.1 M237.3,48.4h-0.5v-2.3 c0.2,0,0.5-0.1,0.9-0.1s0.6,0.1,0.8,0.2c0.1,0.1,0.2,0.3,0.2,0.5c0,0.3-0.2,0.5-0.5,0.5l0,0c0.2,0.1,0.4,0.3,0.4,0.6 c0.1,0.4,0.1,0.5,0.2,0.6h-0.6c-0.1-0.1-0.1-0.3-0.2-0.6c0-0.3-0.2-0.4-0.5-0.4h-0.3L237.3,48.4L237.3,48.4z M237.3,47h0.3 c0.3,0,0.5-0.1,0.5-0.3s-0.2-0.4-0.5-0.4c-0.1,0-0.2,0-0.3,0V47z"></path> <path class="st0" d="M71,45.4c-0.4,0.9-1.1,1.7-1.8,2.4c-0.8,0.6-1.7,1.1-2.8,1.5s-2.3,0.5-3.6,0.5c-1.9,0-3.7-0.3-5.5-1 c-1.8-0.6-3.4-1.6-4.9-3l3.2-3.8c1.1,0.9,2.3,1.6,3.4,2.2c1.2,0.5,2.5,0.8,3.9,0.8c1.1,0,2-0.2,2.6-0.6c0.6-0.4,0.9-1,0.9-1.7v-0.1 c0-0.4-0.1-0.7-0.2-0.9c-0.1-0.3-0.4-0.5-0.7-0.8c-0.4-0.2-0.9-0.5-1.5-0.7s-1.5-0.5-2.5-0.7c-1.2-0.3-2.4-0.6-3.4-1 c-1-0.4-1.9-0.8-2.6-1.4c-0.7-0.5-1.2-1.2-1.6-2c-0.4-0.8-0.6-1.8-0.6-3V32c0-1.1,0.2-2.1,0.6-3s1-1.7,1.7-2.3 c0.8-0.7,1.6-1.2,2.7-1.5c1-0.4,2.2-0.5,3.4-0.5c1.8,0,3.4,0.3,4.9,0.8s2.9,1.3,4.1,2.3l-2.8,4.1c-1.1-0.7-2.2-1.3-3.2-1.8 c-1-0.4-2.1-0.6-3.1-0.6s-1.8,0.2-2.4,0.6c-0.5,0.4-0.8,0.9-0.8,1.5v-0.1c0,0.4,0.1,0.7,0.2,1c0.2,0.3,0.4,0.6,0.8,0.8 c0.4,0.2,0.9,0.5,1.6,0.7c0.7,0.2,1.6,0.5,2.6,0.7c1.2,0.3,2.3,0.7,3.3,1.1c1,0.4,1.8,0.9,2.5,1.5c0.7,0.6,1.2,1.2,1.5,2 c0.3,0.8,0.5,1.7,0.5,2.8v0.1C71.7,43.4,71.4,44.4,71,45.4"></path> <path class="st0" d="M85.3,49.4v-2c-0.7,0.7-1.4,1.3-2.3,1.7s-2,0.6-3.3,0.6c-0.9,0-1.7-0.1-2.5-0.4c-0.8-0.2-1.5-0.6-2-1.1 c-0.6-0.5-1-1.1-1.4-1.8c-0.3-0.7-0.5-1.5-0.5-2.5v-0.1c0-1,0.2-1.9,0.6-2.7c0.4-0.7,0.9-1.4,1.6-1.9c0.7-0.5,1.5-0.9,2.4-1.1 s1.9-0.4,3.1-0.4c1,0,1.8,0.1,2.5,0.2c0.7,0.1,1.4,0.3,2.1,0.6v-0.3c0-1.1-0.3-2-1-2.6c-0.7-0.6-1.7-0.9-3-0.9 c-1,0-1.9,0.1-2.7,0.3c-0.8,0.2-1.6,0.4-2.5,0.8l-1.3-4.1c1-0.4,2.1-0.8,3.2-1.1c1.1-0.3,2.5-0.4,4-0.4c2.9,0,5,0.7,6.4,2.1 c1.3,1.4,2,3.4,2,5.9v10.9h-5.4V49.4z M85.4,41.8c-0.5-0.2-1-0.4-1.6-0.5s-1.2-0.2-1.8-0.2c-1.1,0-2,0.2-2.7,0.7 c-0.7,0.4-1,1.1-1,1.9v0.1c0,0.7,0.3,1.3,0.8,1.7s1.2,0.6,2.1,0.6c1.3,0,2.3-0.3,3-0.9c0.8-0.6,1.1-1.4,1.1-2.4L85.4,41.8 L85.4,41.8z"></path> <path class="st0" d="M105.5,49.4V39c0-1.3-0.3-2.2-0.8-2.8c-0.6-0.6-1.3-1-2.4-1s-1.8,0.3-2.4,1C99.3,36.8,99,37.8,99,39v10.4h-5.3 V30.7H99v2.7c0.3-0.4,0.6-0.8,1-1.1c0.4-0.4,0.8-0.7,1.2-1c0.4-0.3,0.9-0.5,1.5-0.7c0.5-0.2,1.1-0.2,1.8-0.2c2,0,3.6,0.6,4.7,1.9 c1.1,1.2,1.7,2.9,1.7,5.1v12.1L105.5,49.4L105.5,49.4z"></path> <path class="st0" d="M122.6,49.4c-0.7,0.2-1.5,0.3-2.3,0.3s-1.6-0.1-2.2-0.3c-0.7-0.2-1.2-0.5-1.7-0.9s-0.8-1-1.1-1.7 c-0.3-0.7-0.4-1.6-0.4-2.7v-8.9h-2.2v-4.5h2.2v-4.8h5.3v4.8h4.4v4.5h-4.4v8c0,1.2,0.6,1.8,1.7,1.8c0.9,0,1.8-0.2,2.6-0.7v4.3 C123.9,49,123.3,49.2,122.6,49.4"></path> <path class="st0" d="M138,49.4v-2c-0.7,0.7-1.4,1.3-2.3,1.7c-0.9,0.4-2,0.6-3.3,0.6c-0.9,0-1.7-0.1-2.5-0.4c-0.8-0.2-1.5-0.6-2-1.1 c-0.6-0.5-1-1.1-1.4-1.8c-0.3-0.7-0.5-1.5-0.5-2.5v-0.1c0-1,0.2-1.9,0.6-2.7c0.4-0.7,0.9-1.4,1.6-1.9c0.7-0.5,1.5-0.9,2.4-1.1 s1.9-0.4,3.1-0.4c1,0,1.8,0.1,2.5,0.2c0.7,0.1,1.4,0.3,2.1,0.6v-0.3c0-1.1-0.3-2-1-2.6c-0.7-0.6-1.7-0.9-3-0.9 c-1,0-1.9,0.1-2.7,0.3c-0.8,0.2-1.6,0.4-2.5,0.8l-1.3-4.1c1-0.4,2.1-0.8,3.2-1.1c1.1-0.3,2.5-0.4,4-0.4c2.9,0,5,0.7,6.4,2.1 c1.3,1.4,2,3.4,2,5.9v10.9H138V49.4z M138.1,41.8c-0.5-0.2-1-0.4-1.6-0.5s-1.2-0.2-1.8-0.2c-1.1,0-2,0.2-2.7,0.7 c-0.7,0.4-1,1.1-1,1.9v0.1c0,0.7,0.3,1.3,0.8,1.7s1.2,0.6,2.1,0.6c1.3,0,2.3-0.3,3-0.9c0.8-0.6,1.1-1.4,1.1-2.4L138.1,41.8 L138.1,41.8z"></path> <path class="st0" d="M170.8,49.4l-5.2-7.8h-4.2v7.8H156V24.9h11.2c2.9,0,5.2,0.7,6.8,2.1s2.4,3.4,2.4,5.9V33c0,2-0.5,3.6-1.4,4.8 c-0.9,1.2-2.2,2.2-3.8,2.7l6,8.7h-6.4V49.4z M170.9,33.3c0-1.2-0.4-2-1.1-2.6c-0.7-0.6-1.8-0.9-3.1-0.9h-5.3v7h5.4 c1.3,0,2.3-0.3,3.1-0.9C170.5,35.2,170.9,34.4,170.9,33.3L170.9,33.3z"></path> <path class="st0" d="M197.7,43.9c-0.5,1.2-1.2,2.2-2.1,3.1c-0.9,0.9-2,1.6-3.2,2.1s-2.6,0.8-4,0.8s-2.8-0.3-4-0.8s-2.3-1.2-3.2-2.1 c-0.9-0.9-1.6-1.9-2.1-3.1c-0.5-1.2-0.8-2.4-0.8-3.8V40c0-1.4,0.3-2.6,0.8-3.8s1.2-2.2,2.1-3.1c0.9-0.9,2-1.6,3.2-2.1 s2.6-0.8,4-0.8s2.8,0.3,4,0.8s2.3,1.2,3.2,2.1c0.9,0.9,1.6,1.9,2.1,3.1s0.8,2.4,0.8,3.8v0.1C198.5,41.4,198.3,42.7,197.7,43.9 M193.3,40.1c0-0.7-0.1-1.4-0.4-2c-0.2-0.6-0.6-1.2-1-1.6c-0.4-0.5-1-0.9-1.6-1.1c-0.6-0.3-1.3-0.4-2-0.4c-0.8,0-1.4,0.1-2,0.4 s-1.1,0.6-1.5,1.1s-0.7,1-1,1.6c-0.2,0.6-0.3,1.3-0.3,2v0.1c0,0.7,0.1,1.4,0.4,2c0.2,0.6,0.6,1.2,1,1.6c0.4,0.5,1,0.9,1.5,1.1 c0.6,0.3,1.3,0.4,2,0.4c0.8,0,1.4-0.1,2-0.4c0.6-0.3,1.1-0.6,1.5-1.1s0.7-1,1-1.6S193.3,40.8,193.3,40.1L193.3,40.1z"></path> <path class="st0" d="M214.1,46.4c-0.4,0.8-0.9,1.4-1.5,1.9c-0.7,0.5-1.4,0.9-2.3,1.1c-0.9,0.2-1.8,0.4-2.8,0.4 c-1.3,0-2.7-0.2-4.1-0.7c-1.4-0.5-2.7-1.2-4-2.1l2.3-3.5c1,0.7,2,1.3,3.1,1.7s2,0.6,2.8,0.6s1.3-0.1,1.7-0.4c0.4-0.3,0.5-0.6,0.5-1 v-0.1c0-0.3-0.1-0.5-0.3-0.7s-0.5-0.4-0.9-0.5c-0.4-0.2-0.8-0.3-1.2-0.4c-0.5-0.1-1-0.3-1.5-0.5c-0.7-0.2-1.3-0.4-2-0.7 s-1.3-0.6-1.8-1s-1-1-1.3-1.6c-0.3-0.6-0.5-1.4-0.5-2.3v-0.1c0-1,0.2-1.8,0.5-2.5c0.4-0.7,0.9-1.4,1.5-1.9c0.6-0.5,1.3-0.9,2.2-1.2 c0.8-0.3,1.7-0.4,2.7-0.4c1.2,0,2.4,0.2,3.6,0.6c1.2,0.4,2.3,0.9,3.4,1.6l-2,3.7c-0.9-0.5-1.8-1-2.7-1.3s-1.7-0.5-2.3-0.5 c-0.7,0-1.1,0.1-1.5,0.4c-0.3,0.2-0.5,0.6-0.5,0.9V36c0,0.3,0.1,0.5,0.3,0.7s0.5,0.4,0.8,0.6c0.4,0.2,0.8,0.3,1.2,0.5 s0.9,0.3,1.4,0.5c0.7,0.2,1.3,0.5,2,0.8s1.3,0.6,1.8,1.1c0.5,0.4,1,0.9,1.3,1.5c0.4,0.6,0.5,1.3,0.5,2.2V44 C214.7,44.7,214.5,45.6,214.1,46.4"></path> <path class="st0" d="M228,49.4v-2c-0.7,0.7-1.4,1.3-2.3,1.7c-0.9,0.4-2,0.6-3.3,0.6c-0.9,0-1.7-0.1-2.5-0.4c-0.8-0.2-1.5-0.6-2-1.1 c-0.6-0.5-1-1.1-1.4-1.8c-0.3-0.7-0.5-1.5-0.5-2.5v-0.1c0-1,0.2-1.9,0.6-2.7c0.4-0.7,0.9-1.4,1.6-1.9c0.7-0.5,1.5-0.9,2.4-1.1 s1.9-0.4,3.1-0.4c1,0,1.8,0.1,2.5,0.2c0.7,0.1,1.4,0.3,2.1,0.6v-0.3c0-1.1-0.3-2-1-2.6c-0.7-0.6-1.7-0.9-3-0.9 c-1,0-1.9,0.1-2.7,0.3c-0.8,0.2-1.6,0.4-2.5,0.8l-1.3-4.1c1-0.4,2.1-0.8,3.2-1.1c1.1-0.3,2.5-0.4,4-0.4c2.9,0,5,0.7,6.4,2.1 c1.3,1.4,2,3.4,2,5.9v10.9H228V49.4z M228.1,41.8c-0.5-0.2-1-0.4-1.6-0.5s-1.2-0.2-1.8-0.2c-1.1,0-2,0.2-2.7,0.7 c-0.7,0.4-1,1.1-1,1.9v0.1c0,0.7,0.3,1.3,0.8,1.7s1.2,0.6,2.1,0.6c1.3,0,2.3-0.3,3-0.9c0.8-0.6,1.1-1.4,1.1-2.4L228.1,41.8 L228.1,41.8z"></path> <path class="st1" d="M62.6,19.6c-0.3,0.2-0.6,0.4-0.9,0.6c-0.3,0.2-0.7,0.3-1.1,0.3c-0.4,0.1-0.8,0.1-1.3,0.1c-0.7,0-1.4-0.1-2-0.4 c-0.6-0.3-1.1-0.6-1.6-1.1s-0.8-1-1-1.6c-0.3-0.6-0.4-1.3-0.4-2l0,0c0-0.7,0.1-1.4,0.4-2c0.3-0.6,0.6-1.1,1-1.6s1-0.8,1.6-1.1 c0.7-0.2,1.4-0.3,2.1-0.3c0.5,0,0.9,0,1.2,0.1c0.4,0.1,0.7,0.2,1,0.3c0.3,0.1,0.6,0.3,0.8,0.5c0.3,0.2,0.5,0.4,0.7,0.6l-1.4,1.6 c-0.4-0.3-0.8-0.6-1.2-0.8c-0.1-0.2-0.6-0.3-1.1-0.3c-0.4,0-0.8,0.1-1.1,0.2c-0.4,0.2-0.6,0.4-0.9,0.7c-0.3,0.3-0.4,0.6-0.6,1 c-0.1,0.4-0.2,0.8-0.2,1.2l0,0c0,0.4,0.1,0.8,0.2,1.2c0.1,0.4,0.3,0.7,0.6,1c0.2,0.3,0.5,0.5,0.9,0.7c0.4,0.2,0.7,0.2,1.1,0.2 c0.6,0,1-0.1,1.4-0.3c0.4-0.2,0.8-0.5,1.1-0.8l1.4,1.4C63.1,19.1,62.8,19.4,62.6,19.6"></path> <polygon class="st1" points="64.5,20.4 64.5,10.7 66.6,10.7 66.6,18.5 71.5,18.5 71.5,20.4 "></polygon> <path class="st1" d="M72.6,10.7h2.1v9.8h-2.1V10.7z M72.8,9.9l1.6-2.5l1.8,0.8l-1.8,1.7H72.8z"></path> <polygon class="st1" points="83.5,20.4 78.8,14.2 78.8,20.4 76.7,20.4 76.7,10.7 78.6,10.7 83.2,16.7 83.2,10.7 85.3,10.7 85.3,20.4 "></polygon> <rect x="87.2" y="10.7" class="st1" width="2.1" height="9.8"></rect> <path class="st1" d="M99,19.6c-0.3,0.2-0.6,0.4-0.9,0.6s-0.7,0.3-1.1,0.3c-0.4,0.1-0.8,0.1-1.3,0.1c-0.7,0-1.4-0.1-2-0.4 c-0.6-0.3-1.1-0.6-1.6-1.1s-0.8-1-1-1.6c-0.3-0.6-0.4-1.3-0.4-2l0,0c0-0.7,0.1-1.4,0.4-2c0.3-0.6,0.6-1.1,1-1.6s1-0.8,1.6-1.1 c0.7-0.2,1.4-0.3,2.2-0.3c0.5,0,0.9,0,1.2,0.1c0.4,0.1,0.7,0.2,1,0.3c0.3,0.1,0.6,0.3,0.8,0.5c0.3,0.2,0.5,0.4,0.7,0.6l-1.4,1.6 c-0.4-0.3-0.8-0.6-1.2-0.8c-0.2-0.2-0.7-0.3-1.1-0.3s-0.8,0.1-1.1,0.2c-0.3,0.2-0.6,0.4-0.9,0.7c-0.3,0.3-0.4,0.6-0.6,1 c-0.2,0.3-0.3,0.7-0.3,1.1l0,0c0,0.4,0.1,0.8,0.2,1.2s0.3,0.7,0.6,1c0.2,0.3,0.5,0.5,0.9,0.7c0.3,0.2,0.7,0.2,1.1,0.2 c0.6,0,1-0.1,1.4-0.3c0.4-0.2,0.8-0.5,1.1-0.8l1.4,1.4C99.5,19.1,99.3,19.4,99,19.6"></path> <path class="st1" d="M108.2,20.4l-0.9-2.2h-4.1l-0.9,2.2h-2.2l4.2-9.8h2l4.2,9.8H108.2z M105.2,13.2l-1.3,3.2h2.6L105.2,13.2z"></path> <polygon class="st1" points="11.7,14.1 11.7,25.8 0,25.8 0,34.9 11.7,34.9 20.8,34.9 20.8,25.8 20.8,14.1 "></polygon> <polygon class="st0" points="32.6,14.1 32.6,25.8 44.3,25.8 44.3,34.9 32.6,34.9 23.5,34.9 23.5,25.8 23.5,14.1 "></polygon> <polygon class="st0" points="11.7,37.4 0,37.4 0,46.5 11.7,46.5 11.7,58.2 20.8,58.2 20.8,46.5 20.8,37.4 "></polygon> <polygon class="st1" points="32.6,58.2 32.6,46.5 44.3,46.5 44.3,37.4 32.6,37.4 23.5,37.4 23.5,46.5 23.5,58.2 "></polygon> </g> <g> <g> <path class="st2" d="M280.2,2.8c-16.2,0-29.4,13.1-29.4,29.4s13.1,29.4,29.4,29.4c16.2,0,29.4-13.1,29.4-29.4S296.5,2.8,280.2,2.8 M280.2,52.3c-11.1,0-20.1-9-20.1-20.1s9-20.1,20.1-20.1s20.1,9,20.1,20.1C300.4,43.2,291.3,52.3,280.2,52.3"></path> </g> <g> <path class="st3" d="M252.8,32.1c0,7.6,3.1,14.4,8.1,19.4c5,5,11.8,8.1,19.4,8.1s14.4-3.1,19.4-8.1c5-5,8.1-11.8,8.1-19.4 c0-7.6-3.1-14.4-8.1-19.4s-11.8-8.1-19.4-8.1c-7.6,0-14.4,3.1-19.4,8.1C255.9,17.7,252.8,24.6,252.8,32.1 M260.4,52 c-5.1-5.1-8.3-12.1-8.3-19.9s3.2-14.8,8.3-19.9c5.1-5.1,12.1-8.3,19.9-8.3c7.7,0,14.8,3.2,19.9,8.3c5.1,5.1,8.3,12.1,8.3,19.9 c0,7.7-3.2,14.8-8.3,19.9c-5.1,5.1-12.1,8.3-19.9,8.3C272.5,60.2,265.5,57.1,260.4,52"></path> </g> <g> <rect x="274.2" y="36" class="st4" width="12.2" height="11.8"></rect> </g> <g> <polygon class="st5" points="280.4,46.8 280.4,43.4 281.3,43.4 281.3,44.7 282,44.7 282,43.4 282.9,43.4 282.9,46.8 282,46.8 282,45.5 281.3,45.5 281.3,46.8 "></polygon> </g> <g> <path class="st5" d="M280.1,46.8l-0.6,0c-0.5,0-0.9-0.2-1.2-0.5c-0.3-0.3-0.5-0.7-0.5-1.2c0-0.5,0.2-0.9,0.5-1.2 c0.3-0.3,0.7-0.5,1.2-0.5l0.6,0l0,0.8l-0.4,0c-0.3,0-0.5,0.1-0.6,0.2c-0.2,0.1-0.2,0.4-0.2,0.7c0,0.3,0.1,0.5,0.2,0.7 c0.2,0.1,0.4,0.2,0.6,0.2l0.4,0L280.1,46.8z"></path> </g> <g> <path class="st5" d="M277.3,43.6c-0.2-0.2-0.5-0.3-0.9-0.3c-0.4,0-0.7,0.1-0.9,0.3c-0.2,0.2-0.3,0.5-0.3,0.9l0,2.3l0.9,0l0-0.7 l0.7,0v0.7l0.9,0l0-2.3C277.7,44.2,277.5,43.9,277.3,43.6 M276,45.4l0-0.8c0-0.1,0-0.2,0.1-0.3c0.1-0.1,0.2-0.1,0.3-0.1 s0.2,0,0.3,0.1c0.1,0.1,0.1,0.2,0.1,0.3l0,0.8L276,45.4z"></path> </g> <g> <path class="st5" d="M285.3,45.8c0,0.3-0.1,0.5-0.2,0.7c-0.2,0.2-0.5,0.3-1,0.3l-1,0l0-0.8l0.9,0c0.2,0,0.3-0.1,0.3-0.2 c0-0.1-0.1-0.2-0.4-0.4c-0.3-0.2-0.5-0.4-0.6-0.5c-0.1-0.1-0.2-0.3-0.2-0.6c0-0.3,0.1-0.6,0.3-0.7c0.2-0.2,0.5-0.2,0.8-0.2l0.9,0 l0,0.8l-0.9,0c-0.1,0-0.1,0-0.1,0c0,0-0.1,0.1-0.1,0.1c0,0.1,0.1,0.2,0.4,0.4c0.3,0.2,0.5,0.3,0.7,0.5 C285.3,45.3,285.3,45.5,285.3,45.8"></path> </g> <g> <path class="st5" d="M286.4,35.9l-12.3,0l0,12l12.3,0L286.4,35.9z M274.2,47.9l0-11.8l12.2,0l0,11.8L274.2,47.9z"></path> </g> <g> <polygon class="st4" points="264.6,27.7 265.3,31.5 265.4,31.5 266.1,27.7 267.2,27.7 266,32.8 264.7,32.8 263.5,27.7 "></polygon> </g> <g> <polygon class="st4" points="270.3,27.7 270.3,28.6 268.6,28.6 268.6,29.7 270.2,29.7 270.2,30.6 268.6,30.6 268.6,31.9 270.4,31.9 270.4,32.8 267.5,32.8 267.5,27.7 "></polygon> </g> <g> <path class="st4" d="M270.9,27.7h1.9c0.8,0,1.3,0.4,1.3,1.3c0,0.7-0.3,1.1-0.8,1.2v0c0.7,0.1,0.8,0.5,0.8,1.5c0,0.5,0,0.8,0.2,0.9 v0h-1.1c-0.1-0.1-0.1-0.3-0.1-0.5l0-1c0-0.4-0.2-0.6-0.6-0.6h-0.5v2.1h-1V27.7z M271.9,29.9h0.4c0.5,0,0.8-0.2,0.8-0.8 c0-0.5-0.2-0.7-0.7-0.7h-0.5L271.9,29.9L271.9,29.9z"></path> </g> <g> <rect x="274.9" y="27.7" class="st4" width="1" height="5"></rect> </g> <g> <polygon class="st4" points="276.7,27.7 279.5,27.7 279.5,28.6 277.7,28.6 277.7,29.7 279.4,29.7 279.4,30.6 277.7,30.6 277.7,32.8 276.7,32.8 "></polygon> </g> <g> <rect x="280" y="27.7" class="st4" width="1" height="5"></rect> </g> <g> <path class="st4" d="M283.9,29.4c0-0.7-0.1-1.1-0.6-1.1c-0.5,0-0.6,0.5-0.6,1.9c0,1.5,0.2,1.8,0.6,1.8c0.4,0,0.6-0.2,0.6-1.3h1 c0,1.1-0.3,2-1.6,2c-1.5,0-1.7-1.1-1.7-2.6c0-1.5,0.2-2.6,1.7-2.6c1.5,0,1.6,1.1,1.6,1.8H283.9z"></path> </g> <g> <path class="st4" d="M286.4,27.7h1.3l1.3,5h-1.1l-0.2-1.1h-1.3l-0.2,1.1h-1.1L286.4,27.7z M286.5,30.9h1l-0.5-2.3h0L286.5,30.9z"></path> </g> <g> <path class="st4" d="M289.4,27.7h1.7c1.4,0,1.7,1,1.7,2.4c0,1.8-0.4,2.6-1.7,2.6h-1.6V27.7L289.4,27.7z M290.4,32h0.5 c0.7,0,0.8-0.4,0.8-1.8c0-1.1-0.1-1.7-0.9-1.7h-0.4V32z"></path> </g> <g> <path class="st4" d="M295,27.6c1.5,0,1.7,1.1,1.7,2.6c0,1.5-0.2,2.6-1.7,2.6c-1.5,0-1.7-1.1-1.7-2.6 C293.3,28.7,293.5,27.6,295,27.6 M295,32.1c0.6,0,0.7-0.5,0.7-1.9c0-1.3-0.1-1.9-0.7-1.9c-0.6,0-0.7,0.5-0.7,1.9 C294.3,31.6,294.4,32.1,295,32.1"></path> </g> <g> <path class="st5" d="M255.8,37.2c-0.1-0.4,0.2-0.9,0.6-1c0.4-0.1,0.9,0.2,1,0.6c0.1,0.4-0.2,0.9-0.6,1 C256.4,37.9,255.9,37.6,255.8,37.2"></path> </g> <g> <path class="st5" d="M255.6,33.1c-0.5,0-0.7,0.1-0.7,0.4c0,0.3,0.4,0.4,1.3,0.3c1-0.1,1.2-0.2,1.1-0.5c0-0.2-0.1-0.4-0.9-0.4 l0-0.7c0.7,0,1.3,0.1,1.4,1c0.1,1-0.6,1.1-1.6,1.2c-1,0.1-1.7,0-1.8-1c-0.1-0.9,0.6-1,1.1-1.1L255.6,33.1z"></path> </g> <g> <path class="st5" d="M254.5,31.2l2.3,0.1c0.3,0,0.6,0,0.6-0.4c0-0.3-0.2-0.4-0.5-0.4l-2.3-0.1l0-0.7l2.3,0.1c0.8,0,1,0.6,1,1.1 c0,0.5-0.2,1-1.1,1l-2.3-0.1L254.5,31.2z"></path> </g> <g> <polygon class="st5" points="254.7,29 254.8,28.1 257.2,28 257.2,28 255,27.1 255.2,26.2 258.4,26.7 258.3,27.3 255.7,26.9 255.7,26.9 258.2,27.9 258.1,28.4 255.4,28.5 255.4,28.6 258,29 257.9,29.6 "></polygon> </g> <g> <path class="st5" d="M255.4,25.4l0.3-1.1c0.2-0.6,0.7-0.7,1.2-0.6c0.6,0.2,0.8,0.7,0.6,1.3l-0.1,0.3l1.2,0.4l-0.2,0.6L255.4,25.4z M257,25.2l0.1-0.3c0.1-0.2,0-0.5-0.3-0.6c-0.3-0.1-0.5,0-0.6,0.3l-0.1,0.3L257,25.2z"></path> </g> <g> <polygon class="st5" points="259.2,24.2 256.2,22.9 256.4,22.3 259,23.4 259.4,22.3 259.9,22.5 "></polygon> </g> <g> <rect x="258.4" y="19.6" transform="matrix(0.4523 -0.8919 0.8919 0.4523 122.7701 242.4)" class="st5" width="0.7" height="3.3"></rect> </g> <g> <polygon class="st5" points="257.8,19.5 258.3,18.7 260.5,19.6 260.5,19.5 258.8,17.9 259.3,17.1 262.1,18.8 261.7,19.4 259.5,17.9 259.5,18 261.4,19.8 261.2,20.3 258.6,19.4 258.6,19.4 260.8,20.8 260.5,21.3 "></polygon> </g> <g> <rect x="261" y="15.6" transform="matrix(0.6173 -0.7867 0.7867 0.6173 86.4153 212.1585)" class="st5" width="0.7" height="3.3"></rect> </g> <g> <polygon class="st5" points="261.8,14.1 262.2,14.5 261.5,15.3 262,15.9 262.8,15 263.2,15.4 262.4,16.2 263.1,16.8 263.9,15.9 264.3,16.3 263,17.7 260.6,15.5 "></polygon> </g> <g> <polygon class="st5" points="262.9,13.2 264.9,14.3 265,14.3 263.5,12.6 263.9,12.2 266.1,14.6 265.5,15.1 263.4,14 263.4,14 264.9,15.7 264.5,16.1 262.3,13.7 "></polygon> </g> <g> <polygon class="st5" points="266,10.6 266.3,11.1 265.8,11.5 267.4,13.7 266.8,14.1 265.2,11.9 264.7,12.3 264.3,11.9 "></polygon> </g> <g> <path class="st5" d="M267.4,9.8c0.9-0.5,1.3,0.1,1.8,0.9c0.5,0.9,0.7,1.5-0.1,2c-0.9,0.5-1.3-0.1-1.8-0.9 C266.7,10.9,266.5,10.3,267.4,9.8 M268.8,12.3c0.3-0.2,0.2-0.5-0.2-1.3c-0.4-0.8-0.7-1-1-0.8c-0.3,0.2-0.2,0.5,0.2,1.3 C268.3,12.2,268.5,12.5,268.8,12.3"></path> </g> <g> <polygon class="st5" points="271.7,7.8 271.9,8.3 270.9,8.7 271.1,9.5 272.2,9.1 272.4,9.6 271.3,10 271.6,10.8 272.8,10.3 273,10.8 271.2,11.5 270,8.5 "></polygon> </g> <g> <path class="st5" d="M273.5,9.6L273.5,9.6c0.1,0.4,0.2,0.6,0.6,0.5c0.2-0.1,0.3-0.2,0.3-0.5c-0.1-0.3-0.3-0.4-0.7-0.4 c-0.6,0-0.9-0.2-1.1-0.7c-0.2-0.6,0.1-1,0.7-1.2c0.6-0.2,1,0,1.2,0.6l0,0.1l-0.6,0.2c-0.1-0.3-0.2-0.4-0.5-0.4 c-0.3,0.1-0.3,0.3-0.3,0.5c0.1,0.2,0.1,0.3,0.4,0.3l0.5,0.1c0.5,0.1,0.7,0.3,0.8,0.7c0.2,0.7-0.1,1.1-0.8,1.3 c-0.7,0.2-1.1-0.1-1.3-0.6l0-0.1L273.5,9.6z"></path> </g> <g> <polygon class="st5" points="276.8,6.6 276.8,7.1 276.1,7.3 276.6,10 276,10.1 275.5,7.4 274.8,7.5 274.7,7 "></polygon> </g> <g> <path class="st5" d="M277.6,6.5l0.8-0.1l1.1,3.2l-0.7,0.1L278.7,9l-0.9,0.1l-0.1,0.7l-0.7,0.1L277.6,6.5z M277.9,5.6l0.6-0.1 l-0.4,0.7l-0.4,0L277.9,5.6z M277.9,8.5l0.6-0.1l-0.4-1.4l0,0L277.9,8.5z"></path> </g> <g> <polygon class="st5" points="280.6,6.4 281.3,8.7 281.3,8.7 281.4,6.4 282,6.4 281.9,9.7 281.2,9.7 280.4,7.4 280.4,7.4 280.4,9.7 279.7,9.6 279.8,6.4 "></polygon> </g> <g> <path class="st5" d="M282.8,6.5l1.1,0.1c0.9,0.1,1,0.8,0.9,1.7c-0.2,1.1-0.5,1.6-1.3,1.5l-1-0.1L282.8,6.5z M283,9.3l0.3,0 c0.5,0.1,0.6-0.2,0.7-1.1c0.1-0.7,0.1-1.1-0.4-1.2l-0.3,0L283,9.3z"></path> </g> <g> <path class="st5" d="M286.1,7.1l0.8,0.2l0,3.4l-0.7-0.2l0-0.7l-0.8-0.2l-0.3,0.6l-0.7-0.2L286.1,7.1z M285.7,9.1l0.6,0.2l0-1.5 l0,0L285.7,9.1z"></path> </g> <g> <path class="st5" d="M288.2,7.6l1.1,0.4c0.5,0.2,0.7,0.6,0.5,1.1c-0.2,0.4-0.4,0.6-0.8,0.6l0,0c0.4,0.2,0.4,0.5,0.1,1.1 c-0.1,0.3-0.2,0.5-0.1,0.6l0,0l-0.7-0.2c0-0.1,0-0.2,0-0.4l0.2-0.6c0.1-0.2,0-0.4-0.2-0.5l-0.3-0.1l-0.5,1.3l-0.6-0.2L288.2,7.6z M288.3,9.2l0.3,0.1c0.3,0.1,0.5,0,0.6-0.3c0.1-0.3,0-0.5-0.3-0.6l-0.3-0.1L288.3,9.2z"></path> </g> <g> <path class="st5" d="M292.5,9.5l0.7,0.4l-0.8,3.3l-0.6-0.3l0.2-0.7l-0.8-0.4l-0.5,0.5l-0.6-0.3L292.5,9.5z M291.5,11.3l0.6,0.3 l0.4-1.4l0,0L291.5,11.3z"></path> </g> <g> <path class="st5" d="M294.8,12.3c0.3-0.4,0.3-0.6,0.1-0.8c-0.3-0.2-0.5,0-1.1,0.8c-0.6,0.8-0.6,1-0.3,1.2c0.2,0.1,0.4,0.1,0.8-0.4 l0.5,0.4c-0.4,0.6-0.9,1-1.6,0.5c-0.8-0.6-0.5-1.2,0.1-2c0.6-0.8,1.1-1.3,1.9-0.7c0.8,0.5,0.4,1.1,0.1,1.5L294.8,12.3z"></path> </g> <g> <polygon class="st5" points="296.5,12.2 297,12.6 296.2,13.6 296.8,14.1 297.6,13.1 298.1,13.6 295.9,16 295.4,15.6 296.4,14.5 295.8,14 294.9,15.1 294.4,14.6 "></polygon> </g> <g> <path class="st5" d="M297.3,16L297.3,16c-0.3,0.3-0.4,0.5-0.1,0.7c0.1,0.1,0.4,0.2,0.6,0c0.2-0.2,0.2-0.4,0-0.8 c-0.2-0.6-0.2-0.9,0.2-1.3c0.5-0.4,1-0.4,1.4,0.1c0.4,0.4,0.5,0.9,0,1.3l-0.1,0.1l-0.4-0.5c0.2-0.2,0.3-0.4,0.1-0.6 c-0.2-0.2-0.4-0.2-0.5,0c-0.1,0.1-0.2,0.3-0.1,0.5l0.2,0.5c0.2,0.5,0.1,0.8-0.2,1c-0.5,0.5-1,0.4-1.5-0.2c-0.5-0.6-0.4-1,0-1.4 l0.1-0.1L297.3,16z"></path> </g> <g> <path class="st5" d="M301,18.8c0.4-0.3,0.5-0.5,0.3-0.7c-0.2-0.3-0.5-0.2-1.3,0.4c-0.8,0.5-0.9,0.8-0.7,1c0.1,0.2,0.3,0.3,0.9-0.1 l0.4,0.5c-0.6,0.4-1.2,0.6-1.7-0.1c-0.5-0.8,0-1.3,0.8-1.9c0.8-0.6,1.5-0.8,2,0c0.5,0.8,0,1.2-0.4,1.5L301,18.8z"></path> </g> <g> <path class="st5" d="M303.1,20.2c0.5,0.9-0.1,1.3-1,1.8s-1.6,0.7-2-0.2c-0.5-0.9,0.1-1.3,1-1.8C302,19.5,302.7,19.3,303.1,20.2 M300.5,21.6c0.2,0.3,0.5,0.2,1.3-0.2c0.8-0.4,1-0.6,0.9-1c-0.2-0.3-0.5-0.2-1.3,0.2C300.6,21,300.4,21.2,300.5,21.6"></path> </g> <g> <polygon class="st5" points="304,22.3 301.9,23.6 301.9,23.6 304.4,23.2 304.6,23.8 301.3,24.3 301,23.5 303.8,21.6 "></polygon> </g> <g> <rect x="301.6" y="24.7" transform="matrix(0.9563 -0.2923 0.2923 0.9563 5.9219 89.745)" class="st5" width="3.3" height="0.7"></rect> </g> <g> <path class="st5" d="M305.2,25.6l0.2,1.1c0.2,0.9-0.4,1.2-1.3,1.4c-1.1,0.2-1.7,0.1-1.9-0.7l-0.2-1L305.2,25.6z M302.6,26.8 l0.1,0.3c0.1,0.4,0.4,0.5,1.3,0.3c0.7-0.2,1.1-0.3,1-0.8l-0.1-0.3L302.6,26.8z"></path> </g> <g> <rect x="303.6" y="28.6" transform="matrix(0.994 -0.1091 0.1091 0.994 -1.3747 33.3249)" class="st5" width="0.5" height="1.3"></rect> </g> <g> <path class="st5" d="M302.7,31l2.3-0.1l0-0.6l0.4,0l0,0.1c0,0.4,0.2,0.7,0.6,0.7l0,0.5l-3.2,0.1L302.7,31z"></path> </g> <g> <path class="st5" d="M303.4,33.1c-0.2,0-0.4,0.1-0.4,0.3c0,0.3,0.3,0.4,0.8,0.4l0.2,0l0,0c-0.2-0.1-0.3-0.3-0.2-0.6 c0-0.6,0.5-0.8,1.1-0.7c0.7,0,1.1,0.4,1.1,1.1c0,0.9-0.8,1-1.6,0.9c-0.9-0.1-1.8-0.1-1.7-1.2c0-0.5,0.2-0.9,0.9-0.9L303.4,33.1z M304.2,33.4c0,0.3,0.2,0.4,0.6,0.4c0.4,0,0.6,0,0.7-0.3c0-0.3-0.3-0.4-0.6-0.4C304.4,33.1,304.2,33.2,304.2,33.4"></path> </g> <g> <path class="st5" d="M304.7,37.1c-0.1,0.4-0.5,0.7-1,0.6c-0.4-0.1-0.7-0.5-0.6-1c0.1-0.4,0.5-0.7,1-0.6 C304.5,36.2,304.7,36.6,304.7,37.1"></path> </g> <g> <path class="st5" d="M258.1,43.2L258.1,43.2c-0.4,0.2-0.5,0.4-0.3,0.7c0.1,0.2,0.3,0.3,0.5,0.2c0.3-0.1,0.3-0.3,0.2-0.8 c-0.1-0.6,0-1,0.5-1.2c0.6-0.3,1-0.1,1.3,0.5c0.3,0.5,0.2,1-0.3,1.3l-0.1,0l-0.3-0.6c0.3-0.1,0.4-0.3,0.3-0.5 c-0.1-0.3-0.3-0.2-0.5-0.2c-0.2,0.1-0.3,0.2-0.2,0.5l0,0.6c0,0.5-0.1,0.8-0.5,1c-0.6,0.3-1.1,0.1-1.4-0.5 c-0.4-0.7-0.2-1.1,0.4-1.4l0.1-0.1L258.1,43.2z"></path> </g> <g> <polygon class="st5" points="262,45.3 261.5,45.6 260.8,44.6 260.2,45 260.8,45.9 260.4,46.2 259.7,45.3 259,45.8 259.7,46.8 259.2,47.1 258.2,45.5 260.9,43.7 "></polygon> </g> <g> <path class="st5" d="M262.3,47.2c0.2-0.2,0.4-0.4,0.2-0.6c-0.2-0.3-0.5-0.1-1.2,0.4c-0.6,0.5-1,0.9-0.7,1.2c0.1,0.1,0.4,0.2,0.7,0 l0.3-0.2l-0.3-0.3l0.4-0.3l0.7,0.8l-1.4,1.1l-0.3-0.4l0.2-0.2l0,0c-0.3,0-0.5-0.1-0.7-0.3c-0.5-0.6-0.1-1.1,0.7-1.9 c0.9-0.7,1.5-0.9,2-0.2c0.5,0.6,0.4,1-0.2,1.5L262.3,47.2z"></path> </g> <g> <path class="st5" d="M264.1,47.8l-1.6,1.6c-0.2,0.2-0.3,0.5-0.1,0.7c0.2,0.2,0.4,0.1,0.7-0.1l1.6-1.6l0.5,0.5l-1.6,1.6 c-0.6,0.6-1.1,0.4-1.5,0c-0.4-0.4-0.6-0.9,0-1.5l1.6-1.6L264.1,47.8z M264.9,47.4l0.5,0.5l-0.8,0.2l-0.3-0.3L264.9,47.4z"></path> </g> <g> <polygon class="st5" points="265.9,49.5 265.1,51.7 265.1,51.7 266.5,50 267,50.4 265,52.9 264.4,52.5 265.2,50.1 265.2,50.1 263.7,51.9 263.2,51.6 265.3,49 "></polygon> </g> <g> <path class="st5" d="M268.2,51.1l1,0.6c0.6,0.3,0.5,0.9,0.3,1.3c-0.3,0.6-0.9,0.7-1.4,0.3l-0.3-0.2l-0.7,1.1l-0.6-0.3L268.2,51.1z M268,52.8l0.3,0.1c0.2,0.1,0.5,0.1,0.6-0.2c0.2-0.3,0.1-0.5-0.1-0.7l-0.2-0.1L268,52.8z"></path> </g> <g> <path class="st5" d="M270.5,52.4l0.7,0.3l-0.6,3.4l-0.6-0.3l0.2-0.7l-0.8-0.4l-0.4,0.6l-0.6-0.3L270.5,52.4z M269.7,54.3l0.6,0.3 l0.3-1.5l0,0L269.7,54.3z"></path> </g> <g> <path class="st5" d="M271.9,55.5L271.9,55.5c-0.1,0.4-0.1,0.6,0.2,0.7c0.2,0.1,0.4,0,0.5-0.3c0.1-0.3,0-0.4-0.4-0.7 c-0.5-0.4-0.7-0.7-0.5-1.2c0.2-0.6,0.7-0.8,1.3-0.6c0.6,0.2,0.9,0.6,0.7,1.2l0,0.1l-0.6-0.2c0.1-0.3,0.1-0.5-0.2-0.6 c-0.3-0.1-0.4,0.1-0.5,0.2c-0.1,0.2,0,0.3,0.2,0.5L273,55c0.4,0.4,0.4,0.6,0.3,1c-0.2,0.7-0.7,0.8-1.4,0.6 c-0.7-0.2-0.9-0.7-0.7-1.2l0-0.1L271.9,55.5z"></path> </g> <g> <path class="st5" d="M275.3,54c1,0.2,0.9,0.9,0.7,1.9s-0.5,1.6-1.5,1.4c-1-0.2-0.9-0.9-0.7-1.9S274.4,53.8,275.3,54 M274.7,56.9 c0.4,0.1,0.5-0.2,0.7-1.1c0.2-0.9,0.2-1.2-0.2-1.3c-0.4-0.1-0.5,0.2-0.7,1.1C274.3,56.5,274.3,56.8,274.7,56.9"></path> </g> <g> <path class="st5" d="M278.3,54.5l0.8,0.1l0.7,3.4l-0.7,0l-0.1-0.7l-0.9-0.1l-0.2,0.7l-0.7,0L278.3,54.5z M278.3,56.6l0.6,0 l-0.2-1.5l0,0L278.3,56.6z"></path> </g> <g> <path class="st5" d="M281.2,54.6l1.2-0.1c0.7-0.1,0.9,0.4,1,0.9c0.1,0.7-0.3,1-1,1.1l-0.4,0l0.1,1.3l-0.7,0.1L281.2,54.6z M282,56.1l0.3,0c0.3,0,0.4-0.2,0.4-0.5c0-0.3-0.2-0.5-0.5-0.5l-0.3,0L282,56.1z"></path> </g> <g> <path class="st5" d="M283.8,54.3l0.8-0.1l1.4,3.1l-0.7,0.1l-0.3-0.7l-0.9,0.2l0,0.7l-0.7,0.1L283.8,54.3z M284.3,56.3l0.6-0.1 l-0.6-1.4l0,0L284.3,56.3z"></path> </g> <g> <path class="st5" d="M286.7,56L286.7,56c0.1,0.4,0.3,0.6,0.6,0.5c0.2-0.1,0.3-0.2,0.3-0.5c-0.1-0.3-0.3-0.4-0.7-0.4 c-0.6,0-1-0.2-1.1-0.7c-0.2-0.6,0.1-1,0.7-1.2c0.6-0.2,1.1,0,1.2,0.6l0,0.1l-0.6,0.2c-0.1-0.3-0.2-0.4-0.5-0.4 c-0.3,0.1-0.3,0.3-0.3,0.5c0.1,0.2,0.1,0.3,0.5,0.3l0.6,0.1c0.5,0.1,0.7,0.3,0.8,0.7c0.2,0.7-0.1,1.1-0.8,1.3 c-0.7,0.2-1.1,0-1.3-0.6l0-0.1L286.7,56z"></path> </g> <g> <path class="st5" d="M288.7,52.9c0.9-0.4,1.3,0.2,1.7,1.2c0.4,0.9,0.5,1.6-0.4,2c-0.9,0.4-1.3-0.2-1.7-1.2S287.8,53.3,288.7,52.9 M289.8,55.6c0.4-0.1,0.3-0.5,0-1.3c-0.3-0.8-0.5-1.1-0.9-1c-0.4,0.1-0.3,0.5,0,1.3C289.3,55.5,289.5,55.8,289.8,55.6"></path> </g> <g> <polygon class="st5" points="292.6,54.8 290.9,51.9 291.5,51.6 292.9,54 293.9,53.4 294.2,53.8 "></polygon> </g> <g> <path class="st5" d="M293.2,50.5l0.7-0.5l2.7,2.1l-0.6,0.4l-0.5-0.5l-0.7,0.5l0.3,0.7l-0.6,0.4L293.2,50.5z M294.5,52.1l0.5-0.4 l-1.1-1l0,0L294.5,52.1z"></path> </g> <g> <path class="st5" d="M294.6,49.5l0.8-0.8c0.4-0.4,0.8-0.5,1.3,0c0.2,0.3,0.3,0.6,0.1,0.9l0,0c0.3-0.2,0.7-0.2,1,0.2 c0.3,0.4,0.5,0.9-0.1,1.4l-0.8,0.8L294.6,49.5z M296,50l0.1-0.1c0.3-0.2,0.3-0.5,0.1-0.7c-0.2-0.2-0.4-0.2-0.6,0l-0.2,0.2L296,50z M297,51.1l0.2-0.2c0.2-0.2,0.3-0.4,0.1-0.7c-0.3-0.3-0.5-0.2-0.7,0l-0.2,0.2L297,51.1z"></path> </g> <g> <path class="st5" d="M297.1,47c0.7-0.7,1.3-0.4,2,0.3c0.8,0.7,1.2,1.2,0.5,2c-0.7,0.7-1.3,0.4-2-0.3 C296.8,48.3,296.4,47.7,297.1,47 M299.3,48.9c0.3-0.3,0-0.6-0.6-1.2c-0.7-0.6-1-0.8-1.2-0.5c-0.3,0.3,0,0.6,0.6,1.2 C298.7,49,299,49.2,299.3,48.9"></path> </g> <g> <path class="st5" d="M298,46l0.7-1c0.3-0.4,0.7-0.6,1.2-0.2c0.4,0.3,0.5,0.6,0.3,0.9l0,0c0.3-0.3,0.6-0.2,1.1,0.1 c0.3,0.2,0.4,0.3,0.6,0.2l0,0l-0.4,0.6c-0.1,0-0.2-0.1-0.3-0.1l-0.5-0.4c-0.2-0.1-0.4-0.1-0.6,0.1l-0.2,0.3l1.1,0.8l-0.4,0.5 L298,46z M299.6,46.3l0.2-0.2c0.2-0.3,0.2-0.5-0.1-0.7c-0.2-0.2-0.5-0.1-0.6,0.1l-0.2,0.3L299.6,46.3z"></path> </g> <g> <path class="st5" d="M299.7,43.4l0.4-0.7l3.3,0.8l-0.3,0.6l-0.7-0.2l-0.4,0.8l0.5,0.5l-0.3,0.6L299.7,43.4z M301.5,44.3l0.3-0.6 l-1.5-0.4l0,0L301.5,44.3z"></path> </g> <g> <polygon class="st5" points="303.6,43.1 300.6,41.8 300.8,41.2 303.3,42.3 303.8,41.2 304.3,41.4 "></polygon> </g> <g> <path class="st6" d="M280.2,23.5c-1.8,0-3.3-1.5-3.3-3.3c0-1.8,1.5-3.3,3.3-3.3c1.8,0,3.3,1.5,3.3,3.3 C283.6,22,282.1,23.5,280.2,23.5z M280.2,17.4c-1.5,0-2.7,1.2-2.7,2.7c0,1.5,1.2,2.7,2.7,2.7s2.7-1.2,2.7-2.7 C282.9,18.7,281.7,17.4,280.2,17.4z"></path> </g> <g> <path class="st4" d="M287.6,15.8c-2.8,1.8-5.1,4.1-6.7,6.7c0,0-0.1,0.1-0.1,0.1c-0.1,0-0.1,0-0.1-0.1c-0.8-1.3-1.8-2.5-3-3.6 c-0.1-0.1-0.1-0.1,0-0.2c0,0,0.1-0.1,0.1-0.1c0,0,0.1,0,0.1,0c0.9,0.5,1.8,1,2.6,1.6l0.1,0.1l0.1-0.1c0.7-0.7,1.5-1.4,2.3-2.1 c1.4-1,2.9-1.9,4.5-2.6c0.1,0,0.2,0,0.2,0.1C287.7,15.6,287.6,15.7,287.6,15.8"></path> </g> </g> </svg> 